<svg xmlns="http://www.w3.org/2000/svg" viewBox="0 0 500 500"><g id="freepik--Mountains--inject-140"><g id="freepik--mountains--inject-140"><g id="freepik--mountains--inject-140"><path d="M438.86,246.29V218.84l-38.22-61.75c-.62-.9-3.1-.89-3.68,0l-17.13,23.37-15.78-15.14a5.16,5.16,0,0,0-6.32,0L342,180.48l-40.17-45.11c-1.47-1.65-5.21-1.62-6.63,0l-32.73,38.07-25.59-23.44c-1.35-1.49-4.61-1.64-6.28-.29L215.1,162.32l-34.38-38c-1.5-1.66-5.3-1.6-6.67.12L129.8,180l-21.87-23.6c-1.69-1.83-5.87-1.71-7.31.19l-39.49,52v37.72Z" style="fill:#f0f0f0"></path><path d="M100.2,161.19a4.84,4.84,0,0,1,3.85-.23l3.42,1.26a4.92,4.92,0,0,0,3.9-.26l1.11-.64-4.55-4.91c-1.69-1.82-5.87-1.7-7.31.2l-5.2,6.88a4.45,4.45,0,0,0,1.47-.47Z" style="fill:#fafafa"></path><path d="M400.64,157.09c-.62-.9-3.1-.89-3.68,0l-4.14,5.65-2.2,3.08.86.89a3,3,0,0,0,3.62.17l2.68-2.16a3,3,0,0,1,3.42,0l.93.73a3,3,0,0,0,3.57-.17Z" style="fill:#fafafa"></path><path d="M230.57,149.76,224.11,155l2.18,1.61a3.67,3.67,0,0,0,4,0l1.41-1.11a3.69,3.69,0,0,1,4-.05h0a3.57,3.57,0,0,0,4.25-.29L241,153.9l-4.21-3.85C235.49,148.56,232.23,148.41,230.57,149.76Z" style="fill:#fafafa"></path><path d="M295.16,135.42l-12.25,14.25,1.52,2c1,1.27,3.78,1.36,5,.16l2.72-2.71a3.93,3.93,0,0,1,4.63-.18h0a4,4,0,0,0,4.53-.08l2.83-2.46a4,4,0,0,1,4.09-.35l5.52,2.79-11.95-13.41C300.32,133.72,296.58,133.75,295.16,135.42Z" style="fill:#fafafa"></path><path d="M357.74,165.34l-7,6.76,5.57-2.06a2.65,2.65,0,0,1,2.44.31l1.52,1.25a2.66,2.66,0,0,0,2.81.13l1.29-.8a2.7,2.7,0,0,1,2.63,0l8.13,5h0l-11-10.6A5.15,5.15,0,0,0,357.74,165.34Z" style="fill:#fafafa"></path><path d="M174.05,124.39l-8,10.11.88.91a4.81,4.81,0,0,0,5.61.32l2.37-1.69a5,5,0,0,1,5.23,0l5.08,3.6a4.94,4.94,0,0,0,5.28,0l1.37-1-11.11-12.3C179.22,122.61,175.42,122.67,174.05,124.39Z" style="fill:#fafafa"></path><g style="opacity:0.05"><polygon points="110 158.64 95.92 172.28 104.19 172.28 98.04 187.22 111.07 178.83 122.06 190.13 129.8 180.01 110 158.64"></polygon><polygon points="181.21 124.81 190.54 152.71 175.52 163.84 173.49 196.38 215.09 162.32 181.21 124.81"></polygon><polygon points="238.01 151.12 232.33 161.05 239.91 161.05 226.3 183.23 247.49 172.22 257.16 179.98 262.43 173.49 238.01 151.12"></polygon><polygon points="341.96 180.48 304.19 138.07 311.86 158.25 298.96 170.26 330.8 176.41 320.56 183.81 325.94 188.09 317.65 204.12 341.96 180.48"></polygon><polygon points="364.05 165.34 357.56 177.85 366.31 177.08 367.53 193.56 379.83 180.48 364.05 165.34"></polygon><polygon points="408.61 222.89 424.84 220.05 408.1 246.29 438.86 246.29 438.86 218.84 404.55 163.41 423.23 202.25 408.61 222.89"></polygon></g></g></g></g><g id="freepik--Water--inject-140"><g id="freepik--water--inject-140"><ellipse cx="250" cy="329.87" rx="245.09" ry="148.68" style="fill:#90CAF9"></ellipse><ellipse cx="250" cy="329.87" rx="245.09" ry="148.68" style="fill:#fff;opacity:0.4"></ellipse><path d="M488.82,363.33c18.29-48.26-3.54-101-65.52-138.59-95.71-58.06-250.89-58.06-346.6,0C18.81,259.86-4,308.16,8.08,353.71c.81-9.67,3-19.17,3.88-28.79a115,115,0,0,0,.93-13.53c-.1-4.41-.23-8.95,1.43-13.1,3.94-9.82,15.85-13.15,21.88-21.73,3.36-4.79,4.62-10.83,7.13-16.17,5.13-10.93,15.46-18.47,26.57-22,5.63-1.79,11.53-2.65,17-4.82,5.9-2.31,10.42-6.05,15-10.42,3.63-3.45,8.43-6.25,12.72-8.79a78.37,78.37,0,0,1,44-10.67c12.07.64,24.75,1.82,36.06-3.68,3.42-1.65,6.54-3.9,9.92-5.62,9.16-4.67,18.21-3.37,27.89-3.37,10.24,0,19.53,5.73,29.43,7.74a41.43,41.43,0,0,0,16.71-.08c5.78-1.23,11.32-3.74,17.21-4.41,4.86-.56,9.63,2,14.08,4,10.27,4.54,19.83,11.49,31,13.26,14.94,2.36,31.5-4.93,44.67,2.85,7.82,4.61,12.45,13.6,19.84,18.93,10.19,7.34,23.27,6.94,34,12.87,9.6,5.3,13.57,17.5,19.7,26.2,3.87,5.5,9.39,9.43,14.2,14.05s9.16,10.53,9.43,17.38c.16,4.14-1.2,8.21-1.16,12.36.07,8.26,5.75,13.66,8.14,20.93a35.76,35.76,0,0,1-.29,24C489.28,361.82,489,362.58,488.82,363.33Z" style="fill:#fff;opacity:0.6000000000000001"></path><path d="M423.3,320.65c-95.71-58.06-250.89-58.06-346.6,0-27.46,16.66-47,36.29-58.73,57.18C29.68,398.72,49.24,418.35,76.7,435c95.71,58.07,250.89,58.07,346.6,0,27.46-16.66,47-36.29,58.73-57.18C470.32,356.94,450.76,337.31,423.3,320.65Z" style="fill:#90CAF9"></path><path d="M423.3,320.65c-95.71-58.06-250.89-58.06-346.6,0-27.46,16.66-47,36.29-58.73,57.18C29.68,398.72,49.24,418.35,76.7,435c95.71,58.07,250.89,58.07,346.6,0,27.46-16.66,47-36.29,58.73-57.18C470.32,356.94,450.76,337.31,423.3,320.65Z" style="fill:#fff;opacity:0.55"></path><path d="M482,377.83c-1.07-1.9-2.22-3.79-3.42-5.67L445.32,352h0l10.85-6.58c-.85-.79-1.7-1.58-2.57-2.37l-11.51,7-36.15-21.94,14.74-8.95c-1.1-.64-2.2-1.28-3.31-1.91l-14.66,8.9-36.15-21.95,9.63-5.84c-1.35-.49-2.71-1-4.07-1.45l-8.79,5.33-24.84-15.07q-5-1.19-10.11-2.22l31.72,19.25L324,326.09,287.8,304.14l33.86-20.56c-1.66-.3-3.32-.6-5-.88l-32.1,19.48-36.16-21.94,5.12-3.11q-3.22,0-6.45,0l-1.89,1.15-1.84-1.11q-3.1,0-6.21.15l4.82,2.92L205.8,302.18,175.91,284c-1.62.31-3.24.64-4.86,1l31.52,19.13-36.15,21.94-36.15-21.94,26-15.75q-5.88,1.47-11.63,3.14L127,302.18l-5.2-3.16-4,1.52,5.94,3.6L87.66,326.08l-9.94-6-1,.6c-.75.45-1.46.92-2.19,1.37l9.92,6L48.28,350l-5.68-3.45c-.84.8-1.66,1.61-2.47,2.42l4.92,3-16.41,10c-1.83,2.33-3.53,4.67-5.15,7l24.79-15,36.15,21.94L48.28,397.79,19.4,380.26q1.91,3.21,4.05,6.38l21.6,13.11-7.35,4.47c.78.82,1.6,1.63,2.41,2.45l8.17-5,36.15,22-13.12,8c1,.68,2.11,1.34,3.17,2l13.18-8,36.15,21.94-9.88,6,3.91,1.55,9.2-5.59,29.29,17.78q7.28,1.81,14.68,3.34l34.8-21.12L242,471.46,231,478.1l6.06.24,8.1-4.92,8.4,5.1c2.1,0,4.2,0,6.29-.1l-11.46-7h0l36.15-21.94h0l37.14,22.55q5.82-1.08,11.56-2.34L365,450.5l11.27,6.85c1.34-.49,2.68-1,4-1.49l-12.05-7.32,36.15-21.94,16.38,9.94c.86-.51,1.74-1,2.59-1.53l.66-.41-16.4-10,36.15-21.94,12.48,7.57c.84-.79,1.69-1.59,2.51-2.39l-11.76-7.14,33.62-20.41C481.06,379.5,481.56,378.67,482,377.83ZM438.86,352l-36.15,21.94L366.56,352,402.71,330ZM166.42,377.81l36.16,21.94L166.42,421.7l-36.15-21.95Zm-39.38,20L90.89,375.85,127,353.91l36.15,21.94Zm42.61-21.94,36.15-21.94L242,375.85,205.8,397.79ZM209,352,245.19,330,281.34,352l-36.15,21.94Zm36.16,25.86,36.15,21.94L245.19,421.7,209,399.75Zm3.23-2,36.15-21.94,36.15,21.94-36.15,21.94Zm75.53,2,36.15,21.95L324,421.7,287.8,399.75Zm3.23-2,36.15-21.94,36.15,21.94L363.33,397.8Zm36.15-69.75,36.15,21.95L363.33,350l-36.15-21.94ZM360.1,352,324,373.89,287.8,352,324,330Zm-39.38-23.9L284.57,350l-36.16-21.94,36.16-21.95ZM245.18,282.2l36.16,21.94-36.15,21.95L209,304.14ZM205.8,306.1,242,328.05,205.8,350,169.65,328ZM202.58,352l-36.16,21.94L130.27,352,166.42,330ZM127,306.1,163.19,328,127,350,90.89,328ZM51.51,352,87.66,330,123.81,352,87.66,373.89Zm0,47.8,36.15-21.94,36.15,21.94L87.66,421.7Zm39.38,23.91,36.15-22,36.15,22L127,445.6Zm75.54,45.84-36.16-21.94,36.15-21.94,36.16,21.94Zm3.22-45.84,36.15-22,36.16,22L205.81,445.6Zm75.54,45.84L209,447.56l36.15-21.94,36.15,21.94Zm39.38-23.9-36.15-21.94,36.15-22,36.15,22Zm41,24.89L287.8,447.56,324,425.62h0l37.77,22.92ZM365,446.58,327.81,424l-.63-.38h0l36.15-21.94h0l37.77,22.92Zm39.38-23.9-37.77-22.92,36.15-21.95,37.77,22.93Zm39.38-23.9-37.77-22.93h0l36.15-21.94,37.77,22.93Z" style="fill:#fff;opacity:0.15"></path><path d="M486.45,350.19c-2.07-1.24-4.54-1.71-6.54-3.12-2.44-1.71-3.89-4.07-2.9-6.61s4.07-4.84,6.12-7.28c4.64-5.57,3.13-11.89-3.64-15.06-3.4-1.59-8.35-3-7.6-5.84s6.24-4.72,10.72-6.4a77.87,77.87,0,0,0,8.22-3.63q-1.26-4.06-2.89-8.09c-3.77,4.76-10.55,8.33-15.67,10.35-9,3.55-19.65,5.14-28,9.27-4.34,2.15-9.06,5.21-13.87,4.83-3.29-.27-4.91-2.18-5.18-4.11s.35-4,0-5.93c-.65-3.14-4.11-5.53-8-7.45-11.05-5.48-26.41-8.61-33.26-16.18-1.22-1.35-2.11-3-.75-4.66,2.85-3.45,11.57-3.25,16.72-5.87,5.32-2.71,4.61-7,3.31-10.36s-2.69-6.71-4-10.07c-1-2.41-1.93-4.83-1.42-7.47s2.69-5.53,6.7-7.34c5.73-2.59,13-2.18,18.61-1.08a42.23,42.23,0,0,1,11.81,3.83c15.81,8.69,5.78,27.81,21.08,36.79a21.69,21.69,0,0,0,12.79,2.74c3.92-.34,7.89-1.67,11.76-2.09-1.67-2.8-3.46-5.58-5.42-8.33a21.56,21.56,0,0,1-8.48-1.11c-8.07-3.36-8.26-14.35-12.26-21.89l-.28-.5a182.65,182.65,0,0,0-14.18-11.63c-.76-.34-1.54-.66-2.32-1-7-2.66-14.64-4.13-21.85-6.4-1-.33-2-.71-2.36-1.64-.47-1.28.4-4.18,1.6-7a286,286,0,0,0-55.33-23.07c-3.75.2-7.55.53-11.31.8a2.67,2.67,0,0,1-1.54-.19c-.77-.49-.56-1.72-.38-2.75.09-.52.16-1,.22-1.53-2.33-.6-4.68-1.18-7-1.74a11.45,11.45,0,0,1-7.22,11.11c-2.05.91-4.46,1.42-6.4,2.38a10.37,10.37,0,0,0-4.06,3.6c-2.79,4.34-1.4,8.93,3.52,11.49,2.61,1.34,6,2.15,8.92,3.31a18.67,18.67,0,0,1,6.42,4.12c2,2.07,2.67,5.21-1,7.27a21.51,21.51,0,0,1-6,1.87c-9.59,2-21,3.82-27,.39-4.38-2.52-4-7-6.55-10.35-1.51-2-4-3.5-6.7-4.87-9.63-4.91-22.25-8-36.16-8.76-4.88-.27-10.51-.49-12.6-2.84-1.24-1.39-.9-3.21-.51-4.95,1.11-5.35,3.52-11.15,8.67-15,2.39-1.78,10.89-5.8,9.36-8.89q-7.95-.24-15.9-.17a11.91,11.91,0,0,1,3.28,1.16c.7.41,1.24.94,1.24,1.56-.05,1.7-3.57,3-6.11,4.2a12.75,12.75,0,0,0-5.87,5.12,19.85,19.85,0,0,1-1.39,2.92,5.86,5.86,0,0,1-3.81,2.19c-2.35.36-3.85-.77-5.52-1.46-6.12-2.64-16.95.22-24.37-1.29a30.16,30.16,0,0,1-6.58-2.43c-5.05-2.24-10.72-4.06-16.15-6q-5.24.93-10.41,2a54.54,54.54,0,0,1,16,6.15c5.53,3.09,11.21,6.69,19.77,6.73,5.84,0,12.2-1.65,17.89-1.31,8.86.56,12.81,7,7.34,12-2.13,2-5.24,3.59-8.08,5.31-5.6,3.4-10.28,7.41-12.16,11.62s-.65,8.58,4.24,10.95c2.78,1.35,10,2.1,7.66,4.35-3.74,3.56-12.79.47-18.72-.31a49.23,49.23,0,0,0-14.35,0c-6.59,1-13.52,2.95-19.7,2.1-4.47-.62-10.31-2.26-11.5-6.81-1-3.69,1.58-8-.11-11.48-2.24-4.59-10.95-6.35-19-7.6s-16.86-2.72-19.77-7.11c-2-3-.71-6.81,2.42-10.15.38-.41.78-.81,1.21-1.21q-6.81,2.47-13.4,5.25a19,19,0,0,0,.89,9.17c1,2.54,2.6,5.27,1,8.24-1.05,2-3.25,3.4-5.25,4.58-2.56,1.52-5.29,3.07-7.94,3.17-3.18.13-5.39-1.91-7.59-3.62a41.48,41.48,0,0,0-12-6.13c-1,.57-2,1.14-2.91,1.72-6.12,3.71-11.84,7.58-17.18,11.56a32.11,32.11,0,0,1,15.67-2.89c5.6.57,9.34,3,12.52,5.49,1.87,1.46,3.7,3,4,5,.21,1.53-.55,3.16-.61,4.73-.23,4,3.87,7.07,8.26,9.58,4.17,2.4,9.08,5.45,6.32,9.29a31.75,31.75,0,0,1-3.07,3.07c-3.1,3.17-3.09,6.9,0,9.22,3.58,2.71,10.72,3.49,13,6.72s-2.19,8.33-8.9,9.94-13.51,0-19.92,2c-6.13,1.9-9.62,6.41-15.85,8.06-6.07,1.59-11.63-.19-17.26-.91a50.91,50.91,0,0,0-16.87,1c-3.3.73-6.5,1.78-9.83,2.33a18.78,18.78,0,0,1-8.92-.72,15.26,15.26,0,0,1-7.88-5.62,6.86,6.86,0,0,1-.7-1.34,96.42,96.42,0,0,0-2.58,9.7c3.92,1.49,7.47,3.47,7.77,6.36s-2.7,6-3.82,9c-1.72,4.61,1.05,8.8,4.55,12.38s7.74,6.93,9.28,11.14A7,7,0,0,1,23.34,357c-2.09,2.4-5.89,4.27-9.32,6.2-.78.44-1.57.9-2.36,1.38.85,2.16,1.79,4.3,2.8,6.44,1.41-1.1,2.94-2.16,4.51-3.17,5.69-3.67,12.21-7.18,15.84-11.47,3.32-3.94,3.83-8.29,1.36-11.63-3.79-5.19-14-7.74-16.78-13.23s3.19-12.83,13.07-16.33a51.85,51.85,0,0,1,19.74-2.54,54.55,54.55,0,0,1,25.19,7.28c5.22,3.14,9.3,7.63,6.29,12.56-2.74,4.53-11,8.47-11.79,13-.68,3.8,4.26,6.39,9.26,8.15s10.76,3.4,12.68,6.69c1.62,2.78.19,6.22,1,9.22,2.34,8.82,22,10.61,28.86,18.05.91,1,1.36,2.47-.44,3.38a8.53,8.53,0,0,1-3,.64c-4.57.38-9.67,1.78-12.45-.81s-2.86-5.81-5.71-8.17c-4.61-3.85-13-5.92-22.09-5.46S61.1,380.59,54.27,385c-2,1.31-3.83,2.74-6,4-5.58,3.15-13.35,4.58-20,4.23a148,148,0,0,0,15.54,17c10.72,6.7,27.26,6.56,35,16.49,2.79,3.57,4.17,8.11,5.5,12.7A271.54,271.54,0,0,0,119,455.56c1.64-.93,2.78-1.5,2.78-1.5,4.34-2.06,6.88-5.38,6.25-8.09a2.7,2.7,0,0,1-.15-1.68,3.76,3.76,0,0,1,1.19-1.34c3.64-2.86,10.6-4.25,15.08-3,3.75,1,5.54,3.43,9.26,4.46,3.92,1,9.11.32,13.91-.42a53.85,53.85,0,0,1,9.82-.92c3.17.1,6.13.94,7.06,2.59s-.35,3.78-.49,5.7c-.23,3.53,3.65,6.25,8.66,7.66s11.08,1.71,17,2,12,.6,17,2a20.9,20.9,0,0,1,7.9,4,2.66,2.66,0,0,1,1.26,2.28,5,5,0,0,1-1.42,2.14l-4.24,4.67c-.57.62-1.14,1.24-1.76,1.85q4.44.24,8.88.39c3.43-2.61,6.73-5.4,8.09-8.34s.32-6.25-3.79-7.51c-2.29-.69-5.24-.7-7.63-1.32s-4.21-2.2-2.68-3.8c1-1.05,3.06-1.69,4.94-2.15,15.12-3.71,31.8-3.15,45.51-8.9,7.84-3.29,13.52-8.22,21.39-11.5,9.24-3.87,21.08-4.91,29.38-2.58a27.54,27.54,0,0,1,9.24,4.57c3.95,2.91,6.84,6.6,6.14,10.79s-5.75,8.93-13,10.75c-6.07,1.53-12.11.77-18,.53a105.81,105.81,0,0,0-17.23.72c-4.93.6-10.12,1.61-14.26,3.67-6.91,3.43-9.25,9-7.78,13.32.12.34.26.67.41,1,3.53-.24,7.05-.54,10.56-.87a6.36,6.36,0,0,1,.64-4.53c1.86-3.47,6.14-5.16,9.8-5.93,13.74-2.86,26.41.6,40.1-1.72,4.85-.83,10-2.36,14.29-1.4a13.86,13.86,0,0,1,2.54.89q8.83-2.55,17.4-5.57a23.82,23.82,0,0,1-6.51-2.08,15.83,15.83,0,0,1-8.35-9.8v-1.75c.18-6-4.88-11.21-13.26-13.75a49.13,49.13,0,0,1-6.85-2.18c-1.95-1-3.21-2.55-2.27-4.24a13.47,13.47,0,0,1,2.37-2.51c2.79-2.76,3.61-6,2.18-8.48-.92-1.61-2.47-3.59,0-5.08a8,8,0,0,1,5.59-.65,10.75,10.75,0,0,1,3.8,2.06,22.12,22.12,0,0,0,12.38,4.22c9.59.29,19.09-4.92,26.67-9.61l12-7.48c3.47-2.13,7.63-4.5,12.11-4.59,2.71-.08,4.89.73,7.4,1a56.15,56.15,0,0,0,9.69-.06c13.87-.68,27,1.2,37.1,5.29a129.68,129.68,0,0,0,13.14-18.12c-2.38.56-4.82,1-7.22,1.36-7.53,1.15-14.51-.68-21.18-2.25-6.12-1.44-12.15-3.11-18.49-4.11-2.37-.38-4.7-.46-6.7,2.23-1.53,2.05-1.22,4.52-3.39,6.34-2.84,2.37-8.83,2.72-12.12,1.41s-4.64-3.7-6.16-5.89c-6.39-9.19-17.66-16.74-32.28-21.63-2.58-.87-5.38-1.71-6.57-3.3s-.56-3.8.18-5.81q1.88-5.21,3.74-10.43a4.65,4.65,0,0,1,1.67-2.46c1.56-1.13,4.15-1.48,6.39-1.57,8.39-.35,16.16,1.61,24.66,0,6.84-1.26,12.64-4.57,18.58-7.3a117.65,117.65,0,0,1,20.27-7.09c9.22-2.31,19.5-3.58,27.11-1.53s10.72,8.41,4.45,13.19c-2,1.55-4.77,2.78-6.59,4.4-3.94,3.49-2.24,7.51,1.08,10.26,3.93,3.26,9.69,5.53,15.1,8a60.9,60.9,0,0,1,7.64,4c.58-1.81,1.09-3.63,1.56-5.45A44.45,44.45,0,0,1,486.45,350.19ZM333.29,215c-.45-4.66,7.36-9.8,15.72-11.64a52.83,52.83,0,0,1,23.74.7,68.3,68.3,0,0,1,23,10.69c4.38,3.1,8.3,6.61,9,10.94a5.09,5.09,0,0,1-1.16,4.42c-1.21,1.4-3.34,2.55-5.36,3.69-5,2.82-9.88,5.82-13.34,9.25s-5.42,7.34-4.23,10.65c1.26,3.53,5.83,6,8.35,9.12s2,8.11-4.13,10.55a31,31,0,0,1-6,1.47,43.61,43.61,0,0,1-18.55-.83,8.23,8.23,0,0,1-4.92-4.74c-1.44-3.6-.29-8.27.76-12.65,1-4,1.87-8.36.43-11.71-1.22-2.81-4.22-4.2-5.25-7.15-.7-2-.38-4.43-.52-6.67C350.32,221.18,334.13,224.27,333.29,215Zm-111,21.59a7.53,7.53,0,0,1,.32-10c4.53-5.39,15.85-8.6,25.25-8.67s17.35,2.27,24.93,4.59c11.15,3.42,23.08,7.49,25.24,15.07a3.65,3.65,0,0,1-.22,3,12.23,12.23,0,0,1-3.16,2.95c-6.9,5.19-13.83,10.92-14.83,16.76-.75,4.33,1.88,8.18,5.39,11.47,1.63,1.56,3.51,3.36,2.11,5.41-1,1.48-3.52,2.61-5,4-3.39,3.26-1,7.58-6.14,10.06-4.4,2.13-10.27.5-11.54-2.15s.18-5.78.38-8.7c.29-4.65-2.88-8.85-8.58-11.39-3.79-1.67-9.07-3.43-7.46-6.55a15.45,15.45,0,0,1,1.93-2.31c3.33-3.74,2.23-8.09-2.51-10.13-6.13-1.77-10.6-4-15.82-6.45C228.4,241.64,224.48,239.46,222.26,236.57Zm92.19,133.76c1.31,2.91,2.55,6.36-1.12,9.26a23.2,23.2,0,0,1-7,3.26,34.06,34.06,0,0,1-20.54,1.38c-4.09-1.12-9.23-4.41-13.12-5.64-2.75-.9-6.64-1.65-9.49-2.45s-5.1-2.42-4.48-4.46c.76-2.48,5.07-4.43,8.36-6.44,8.43-5.18,11-12.91,5.91-17.72-1.6-1.5-3.84-2.73-5.16-4.35s-1.48-3.85.85-5.61c4-3,11.16-2.38,17-3.72,8.16-1.85,13.12-7.48,20.95-10,8-2.62,16.58-1.35,23.67.27,7.61,1.75,15,3.84,20.4,7.22s8.51,8.2,6.68,13.44S348,355.45,338.9,357c-3.93.68-7.8.63-11.72,1s-8.25,1.23-11,3.15C312.19,363.9,313.12,367.45,314.45,370.33ZM156.82,318.07a34.54,34.54,0,0,0-12.65-7.81c-4.78-1.79-10.32-3-14.64-5.14s-7.44-5.39-5.86-9.12c1.38-3.27,6.17-6.27,11.53-8a56.74,56.74,0,0,1,16.75-2.4c10.88-.15,21,1.65,28.69,5.11,3,1.33,5.69,3,5.86,5.45.14,1.73-1.07,3.57-1.9,5.36-1.68,3.7-1.36,7.88,3.59,9.49,3.41,1.11,8.19.74,12.18,1.27s7.37,2.94,4.79,5.31a28.34,28.34,0,0,1-3.38,2.14c-3.84,2.54-3.48,5.86-3.65,8.82-.24,4.21-2.12,8.61-5.46,12.79a6.72,6.72,0,0,1-.92,1.15c-6.35,4.93-11.18,11.45-20.68,13.65-6.42,1.48-12.49-.35-15.77-3.05-4-3.33-5.08-8-2.88-12.59,2.09-4.37,7-8.66,8-13C161.26,324,159.49,320.79,156.82,318.07ZM199,351c2.9-7.89,5.77-15.75,8.68-23.63,1.09-2.94,2.22-6,5.27-8.69,4-3.56,11.09-6.09,17.65-6.33s12.26,1.87,14.11,5.19c1.22,2.19.86,4.78,1.18,7.19a14.83,14.83,0,0,0,5.68,9.54c2,1.66,4.52,3.77,2.14,5.88s-7.24,2.13-11.2,2.69A30.7,30.7,0,0,0,225.64,351c-3.74,3.76-5.48,7.82-7.13,11.8q-1.87,4.43-3.75,8.9a14.84,14.84,0,0,1-3.38,5.48c-3.54,3.44-10.72,5.67-16.89,5.68s-12-1.68-14.16-4.74a7.52,7.52,0,0,1-.5-1.27c-.13-2.81,1.88-4.51,4.75-7.25,1.9-1.8,4.35-3.45,6.33-5.23C195.54,360.21,197.3,355.53,199,351Zm-1.48,38.24c2.41-1.23,5.65-1.87,8.4-2.75,9.12-5.06,16.05-11.42,19.56-17.95,1.93-3.63,2.85-7.3,4.89-10.93a23.4,23.4,0,0,1,11-9.83A9,9,0,0,1,244,347a8.88,8.88,0,0,1,3.31.37c6.2,1.61,12.89,3.6,14.21,7.61,1.1,3.35-2,7.3-6.13,10.54-3.89,3-9.13,6.16-9.21,9.49,0,2.11,2.15,3.76,4.85,4.87,6,2.45,14.43,2.69,21.44,4.31s12.92,5.7,9.62,10.46c-4.25,6.13-19.34,8-25.95,13.69-2.57,2.2-3.6,4.76-6.37,6.89-4.55,3.48-12.82,4.81-18.94,3.93a27.26,27.26,0,0,1-13.89-6.35c-3.45-2.84-6.3-6-10.62-8.37-3.67-2-8.38-3.5-11.09-6S192.6,391.73,197.48,389.26Zm134.28-75.17c-2.75,2.32-7.83,2.6-11.22,1.47a8.21,8.21,0,0,0-2.08-.12,69.54,69.54,0,0,0-16.71,3.31c-6.49,2.27-11.93,5.62-18.3,8s-14.71,3.77-19.37,1.51c-6.66-3.2-1.05-10.8-4.66-15.47-2.57-3.34-9.32-4.61-15.85-5.2a90.08,90.08,0,0,0-15.87-.16c-5.21.47-10.52,1.53-15.62,1.63s-10-.87-13.39-2.7c-2.31-1.23-4-3.15-2.63-5.22,2-3,8.86-4.24,12.49-6.85,5.27-3.82,1.78-8.44,3.3-12.82,1.8-5.18,11.5-9.82,20.44-10.46s16.56,2.17,20,6.36c2.86,3.47,3.19,7.72,4.82,11.58a25,25,0,0,0,8.63,10.32,22.51,22.51,0,0,0,7.81,3.71c7.28,1.77,16.79.16,25.6-.91a90.59,90.59,0,0,1,18.55-.72c5.86.55,11.18,2.18,13.79,5.06C333.32,308.45,334.52,311.77,331.76,314.09ZM114.71,277c-1.18-.72-2.23-1.6-2-2.73.37-2,4.34-3.51,6.17-5.41,3.11-3.23-.72-6.27-4.51-8.28-3.55-1.86-7.28-3.69-9.58-6.17-3.51-3.8-3.32-9,.52-13.69s11.27-8.81,19.53-10.81c9-2.17,19.94-1.19,22,3.56a10.56,10.56,0,0,1,.34,4.31c-.14,6.91,4.7,13.85,15.8,15.31,7.3,1,15.79-.57,23.88-1.54a156.46,156.46,0,0,1,43.27.62c6.82,1.14,14,3.68,12.71,8.13-.91,3-5.75,5.8-10.83,7.24s-10.47,1.76-15.69,2.08c-3.37,1.36-10,4.08-12,6.71-1.52,2.1-.81,4.2-.67,6.25a6,6,0,0,1-4,6,13.36,13.36,0,0,1-9.18.25c-2.49-.89-4.07-2.37-5.91-3.65-4.91-3.46-12.09-5.8-20.52-6.11-11-.41-23.24,2.63-34.16,2C123.86,280.77,118.5,279.3,114.71,277ZM94.15,350.79c-2.52-1.26-5.51-3.4-6.88-6.1s-.16-6.11,3.12-8.9c4-3.47,11.47-6.78,10.62-10.32-.33-1.43-2.08-2.44-3.75-3.39q-6.23-3.43-12.44-6.93c-2.47-1.39-5.09-3-4.75-5.24.26-1.69,2.23-3.41,4.58-4.77,7.07-4,18.23-5.1,24.44-2.36,4,1.78,5.83,4.76,9.06,7,3.84,2.64,9.54,4.15,15.13,5.61s11.27,2.95,15.18,5.57,5.66,6.63,2.7,10.51c-2.14,2.75-6.42,5.15-7.94,8s-.8,6-5.05,7.64c-2.81,1.06-5.95.58-9,.7-5.72.23-11.25,2.69-16.93,4.17S98,352.71,94.15,350.79Zm52.11,80.81c-5.07,2.68-11.16,1.62-17.32,2.53-2.63.4-5.13.11-7.75.25s-5.77,1-6.75,2.49a2,2,0,0,0,0,2.25c.88,1.52,2.72,2.7,3.77,4.14s1.14,3.48-1.08,5c-2.68,1.79-7.16,1.84-10.27,1.12-9.36-2.15-12.35-8.56-13.49-14.62S92,422,85.55,417.8C80,414.1,70.83,412.87,63,410.72S48,404.6,49.66,399c.84-2.81,3.85-5.58,7.38-8a51.37,51.37,0,0,1,19.71-8.15c7.49-1.32,15.45-.49,19.11,2.67,2.41,2.09,2.8,4.92,3.92,7.47a9.23,9.23,0,0,0,8,5.57c6,.66,13.24-2.53,19.56-2.31,6.65.21,9.74,3.94,12,7.33,3.11,4.68,6.19,9.37,9.3,14.06,1.4,2.14,2.84,4.32,2.85,6.77S149.85,429.71,146.26,431.6Zm4.47-27.17c-2.32-9.54-10.31-17.88-22.49-23.46-6.26-2.84-13.65-5-18.27-8.78s-5.66-9.78.73-14.28c6.6-4.67,18.13-5.55,26.14-3.85s13.7,5.3,20.52,8a17.46,17.46,0,0,0,7.12,1.48c7.11-.21,12.24-6.58,19.49-7.6.79-.12,3-.23,3.69.87,1.15,2-2.45,6.57-5.29,9.22s-6.93,4.88-10.11,7.43-5.47,5.8-3.67,8.13c2.78,3.64,13.66,3.09,15.88,6.9,2.1,3.59-4.82,8.1-5.61,12.24-1.09,5.54,9,9.44,5.18,15-2.09,3-8,5.22-13.27,5.45A21.84,21.84,0,0,1,158,418a13.85,13.85,0,0,1-5.3-5.86C151.59,409.69,151.37,407,150.73,404.43ZM291.29,435.6c-8.28,6.56-22,10.55-34.69,11.73-9.91.93-20.83.68-29.14,4.88-1.84.91-3.44,2-5.41,2.81-3.75,1.52-8.19,1.67-12.19,1.58-6.06-.14-12.56-1-14.67-4-1.55-2.25-.25-5.12.37-7.81s.21-5.68-3.55-6.72-8.71.28-13.25,1a51.12,51.12,0,0,1-17.33,0c-4.87-.92-9.3-3.13-8.45-6.38.75-2.83,5.49-5.46,10.38-6.53a44.39,44.39,0,0,1,14.36-.39l1.31-.35c5.62-2.45,9.86-6.11,11.36-9.77.71-1.74.86-3.51,2.07-5.22a9.52,9.52,0,0,1,6.94-3.58,6.3,6.3,0,0,1,6.19,3.65c2.4,4.32,4.87,8.75,10.08,11.91s13.85,4.77,22.35,2.68c5.31-1.3,9.79-3.82,14.66-5.81a71.08,71.08,0,0,1,25-5.11c5.06-.09,10,.43,13.72,1.93C300.52,419.86,299.57,429,291.29,435.6Zm78.09-72.74a93.19,93.19,0,0,1,19.45,14.8c4.47,4.53,8.18,10,4.53,15.83-1.93,3.11-5.75,5.91-9.75,8.51a35,35,0,0,1-9.46,4.6,32.29,32.29,0,0,1-13.17.63,31.91,31.91,0,0,1-10.25-3.13c-2.57-1.34-4.75-3.08-8.33-3.54-5.93-.83-14.1,3-14.36,6.76-.22,3.25,4.42,5.49,4,8.75-.35,2.85-4.42,5.56-8.21,7.9-2.67,1.66-5.76,3.46-9.28,3.79a9,9,0,0,1-7.52-2.43c-1.37-1.55-1.76-3.44-2.57-5.18-1.57-3.32-4.82-6.18-9.31-8.19l-.94-.17c-4.23-2.88-13.08-1.59-20.32-1.54-1.53,0-3.28-.15-3.56-1a1.52,1.52,0,0,1,.44-1.27c3.84-5,16.48-7.37,19-12.44.72-1.46.42-3,1.61-4.37,1.76-2.11,6.15-3.24,9.94-3.59s7.52-.22,11.28-1c5.26-1.17,9.72-4.32,10.4-7.36,1-4.37-5-7.95-2-12.28,1.86-2.64,6.64-4.6,11.27-5.57s9.31-1.19,14-1.8a71.19,71.19,0,0,1,9-1C361.18,358.53,365.62,360.67,369.38,362.86Zm44.41-39.5c-3.36,3.23-9.63,5.27-15.58,6.29-11,1.88-17.65.33-27.46-1.1-2.05-.29-4.46-.58-5.53-.87-.56-.16-2.46-.4-2.46-.4-6.1-1.07-8-1.33-12.41-3.54-2.87-1.45-5.3-3.34-5.43-5.77s1.88-4.86,2-7.23c.16-2.53-1.8-4.63-3.73-6.62-2.71-2.74-5.63-5.53-10.45-7-5.05-1.58-11.62-1.56-17.93-1.52s-12.89.09-18-1.42-8.34-5.13-5.72-8.8c1.35-1.9,3.94-3.51,6-5.25,5.9-5,6.62-11.42,1.77-15.38-1.32-1.08-3-2-3.75-3.28-1-1.77-.09-4,1.25-6a20.46,20.46,0,0,1,4.64-5.05c5.59-4.33,14.75-6.86,23.15-7.57,11.57-1,23.32,1.69,25.46,7.79,1.86,5.25-3.68,11.51-3.51,17.12.24,7.23,9.73,11.93,18.64,16L393.88,297c11,5,22.76,10.88,22.78,19.88A8.51,8.51,0,0,1,413.79,323.36ZM56.48,273.44c3.54-5.39-2.18-9.87-5.69-14.3-3.33-4.18-4.65-9.35-1.75-14.41q-5.58,4.85-10.46,9.88a14.4,14.4,0,0,0,1.69,4.44c1.06,1.79,2.51,3.3,3.46,5.18a7.52,7.52,0,0,1,.29,6.64c-1.66,3.61-6,5.67-9.76,6.49-4.31.95-8.51,1-12.81,1.85-.74.15-1.49.34-2.24.55a111.36,111.36,0,0,0-6.31,12.4c5.12-4.14,14-6.39,22.05-8.42C43.53,281.58,53.22,278.46,56.48,273.44ZM163.77,469.08q5.88,1.34,11.85,2.48a34.31,34.31,0,0,0-10.24-2.38Zm247.29-44.27a9.54,9.54,0,0,0-4.49,4.33,19.43,19.43,0,0,0-2.46,7.52c-.25,2.56.13,5-.48,7.65a10.57,10.57,0,0,1-.58,1.69q4.18-2,8.25-4.19c.4-1.53.82-3.06,1.28-4.59a12.43,12.43,0,0,1,1.53-3.57,5.22,5.22,0,0,1,3.21-2.29,4.71,4.71,0,0,1,1.93.26c1.88.53,4.49.93,7.15,1.46q3.64-2.29,7.08-4.65a98.06,98.06,0,0,0-11.16-4C419,423.61,414.59,423.22,411.06,424.81Z" style="fill:#fff;opacity:0.15"></path></g></g><g id="freepik--Character--inject-140"><g id="freepik--character--inject-140"><g id="freepik--Bottom--inject-140"><g id="freepik--Legs--inject-140"><path d="M243.81,292a16.62,16.62,0,0,0-7-3.55c-5.23-1.17-8-1.28-14.69-1-16,.61-36.43,3.89-36.43,3.89-8.82-13.89-17.64-18-29.11-27.07-7.91-6.79-13.49-11.82-14.86-13.89S140,246.5,139,244.23c-1.31-3-3.49-6-6.68-6.43s-6.25,1.83-9.51,2.12c-4.93.43-9.34-3.86-14.32-1.71a9.67,9.67,0,0,1-1.92.78,6.51,6.51,0,0,1-1.87,0,8.67,8.67,0,0,0-4,.39c-1.23.49-2.22,1.43-3.42,2-.63.29-1.31.47-1.92.8a3.67,3.67,0,0,0-1.88,2.56,2.9,2.9,0,0,0,1.22,2.85,5.06,5.06,0,0,0,1.92.59c.62.1,9,2.07,9,2.07s6.33,2.11,9.55,3.09c6.46,2,14.12,5.08,19,9.72,2.58,2.44,7.85,10.13,10,13.3C151.91,288,168,310.83,177,313.76c9.4,3.46,38.44,7.72,62.48,11.17Z" style="fill:#f28f8f"></path><path d="M241.73,307.94,217,292.4c-4.6,1-9.21,4.16-13.89,11-18,.14-18,.14-23.93.21-11.27.14-12.77-1.88-20.93-11.46-7.28-8.53-17.28-25.46-25.66-30.43l0,0c.56.44,1.11.9,1.62,1.38,2.58,2.44,7.85,10.13,10,13.3h0C151.91,288,168,310.83,177,313.76c9.4,3.46,38.44,7.72,62.48,11.17Z" style="fill:#b16668"></path><path d="M228.62,319.12c-2.47-5.39-8.39-12-24.45-13.15-12.27-.91-44.39-.2-44.39-.2-13.94-11.68-26.86-11.72-38.09-15.79s-14.48-6.66-16.22-8.44-2.43-3.49-3.85-5.53c-1.85-2.66-4.55-5.2-7.78-5.06s-5.79,3-8.94,3.88c-2.88.82-10.9-1.31-13.8-1.53a8.41,8.41,0,0,0-4,.41,10.31,10.31,0,0,1-4.43,1.22,22.6,22.6,0,0,0-2.95-.26,5.09,5.09,0,0,0-2,.67,3.63,3.63,0,0,0-1.37,1.21,1.84,1.84,0,0,0-.14,1.77c.18.33.48.58.66.91.33.59.24,1.33.54,1.94s1.07,1,1.63,1.51c1.4,1.27,2.06,2.7,4,3.43a17.87,17.87,0,0,0,3.7.83c2.72.41,10.47,2.18,13.2,2.48,6.72.71,14.83,2.32,20.52,6L118.68,307c9.1,5.81,29.87,19.07,37.58,21.57s40.05,14.12,64.72,13.14C221,341.69,238.76,341.29,228.62,319.12Z" style="fill:#f28f8f"></path><path d="M118.68,307c9.1,5.81,29.87,19.07,37.58,21.57s40.05,14.12,64.72,13.14a13,13,0,0,0,7.78-3.13l-1.13-7c-5.09,4.21-41.56-.3-49.14-1.51-6.5-1-18.35-2.06-34.79-10.9-15.38-8.26-41-22.53-44.28-24.36.35.2.69.4,1,.62h0Z" style="fill:#b16668"></path><path d="M99.07,294.56h0l.17.09Z" style="fill:#b16668"></path></g><path d="M257.92,346.42c-17.81-6.51-31.93-3.86-39.37-4.68,3.33-9,1.31-21.15-3.46-27.42A25.49,25.49,0,0,0,204.17,306c10-19.26,27.77-18.4,39.8-13.76Z" style="fill:#37474f"></path><path d="M253.65,329.82l-8.2-.56L234.66,333c-9.68.48-14.49.19-14.49.19v0a27.94,27.94,0,0,1-1.61,8.54c7.44.82,21.56-1.83,39.37,4.68Z" style="fill:#263238"></path><path id="freepik--Shade--inject-140" d="M244,292.21l-.17-.07V292a16.62,16.62,0,0,0-7-3.55c-5.23-1.17-8-1.28-14.69-1-16,.61-36.43,3.89-36.43,3.89-8.82-13.89-17.64-18-29.11-27.07-7.91-6.79-13.49-11.82-14.86-13.89S140,246.5,139,244.23c-1.31-3-3.49-6-6.68-6.43s-6.25,1.83-9.51,2.12c-4.93.43-9.34-3.86-14.32-1.71a9.67,9.67,0,0,1-1.92.78,6.51,6.51,0,0,1-1.87,0,8.67,8.67,0,0,0-4,.39c-1.23.49-2.22,1.43-3.42,2-.63.29-1.31.47-1.92.8a3.67,3.67,0,0,0-1.88,2.56,2.9,2.9,0,0,0,1.22,2.85,5.06,5.06,0,0,0,1.92.59c.62.1,9,2.07,9,2.07s6.33,2.11,9.55,3.09c5.81,1.77,12.58,4.47,17.45,8.36l0,0c.56.44,1.11.9,1.62,1.38a24.88,24.88,0,0,1,1.7,1.86l.65.8c2.67,3.34,6,8.26,7.62,10.64h0c5.22,7.86,14.26,20.82,22.35,29.32-4.07.06-6.74.12-6.74.12-13.94-11.68-26.85-11.72-38.09-15.79s-14.48-6.66-16.22-8.44-2.43-3.49-3.85-5.53c-1.85-2.66-4.55-5.2-7.78-5.06s-5.79,3-8.94,3.88c-2.88.82-10.9-1.31-13.8-1.53a8.41,8.41,0,0,0-4,.41,10.31,10.31,0,0,1-4.43,1.22,22.6,22.6,0,0,0-2.95-.26,5.09,5.09,0,0,0-2,.67,3.63,3.63,0,0,0-1.37,1.21,1.84,1.84,0,0,0-.14,1.77c.18.33.48.58.66.91.33.59.24,1.33.54,1.94s1.07,1,1.63,1.51c1.4,1.27,2.06,2.7,4,3.43a17.87,17.87,0,0,0,3.7.83c2.72.41,10.47,2.18,13.2,2.48,6.19.66,13.56,2.08,19.14,5.15h0l.17.09h0l.19.11h0c.35.2.69.4,1,.62h0l8.87,5.64,4,2.53,2.71,1.73,2.67,1.7,2.85,1.82,1.77,1.12,1.57,1,2.44,1.53c1.25.79,2.56,1.6,3.89,2.42,2.22,1.37,4.51,2.78,6.79,4.14,7.29,4.35,14.41,8.29,18.27,9.54,1.44.47,3.75,1.26,6.72,2.23,1.48.48,3.13,1,4.91,1.56s3.7,1.14,5.73,1.73l2.06.59c11.9,3.36,27,6.8,40.59,7.07.77,0,1.53,0,2.28,0h0c7.44.82,21.56-1.83,39.37,4.68Z" style="fill:#90CAF9;opacity:0.30000000000000004"></path></g><g id="freepik--Top--inject-140"><g id="freepik--Arm--inject-140"><g id="freepik--arm--inject-140"><path d="M368.5,367.66s-16.82-6.06-29.89-10.59c-11.22-3.89-18.34-6.29-28.91-5.18,6.95-5.3,9.71-12,12.18-16.84a23.29,23.29,0,0,1,8.26-6.45c9,.87,12.52,6.49,18.85,9.9,7.56,4.07,10.4,4.69,19.51,8.45,9.69,4,11.19,4.34,16.71,9.26,10.59,9.42,17.58,17.71,22.87,22.44,5.81,5.2,8.36,6.8,12.53,12.14,1.62,2.07,2.43,4.86,3.09,7.39.83,3.17,1.66,5.23,1.87,8.77a12.79,12.79,0,0,1,0,2.22c-.07.69-.22,1.5-1,1.59,0,0,0,.49,0,1.08,0,2.15-1.16,2.78-2.07,2.91,0,.95.16,1.7-.17,2a2.3,2.3,0,0,1-2.25.15,2.8,2.8,0,0,1-1.52-1.68,2,2,0,0,1-1.83-.51c-.82-.75-1.1-2.39-1.41-3.71a41.58,41.58,0,0,0-1.27-4.69,13.89,13.89,0,0,0-5.19-6.78c-1-.62-1,.17-1.07,1a23.39,23.39,0,0,0,.08,2.51,28.2,28.2,0,0,1,.15,5.43c-.37,3-2.17,3.71-2.7,2.83s-1.66-4.79-2.83-8.1-.69-6.84-2.3-11C397.93,386.6,368.5,367.66,368.5,367.66Z" style="fill:#f28f8f"></path><path d="M416.27,400.47c.35,1.25.79,2.47,1.19,3.69a17.39,17.39,0,0,1,.93,3.71l.48,3.85.28,1.92c.08.6,0,1.35-.61,1.62a1,1,0,0,0,.7-.64,2.59,2.59,0,0,0,.15-1l-.15-1.95c-.11-1.29-.22-2.58-.39-3.87a15.21,15.21,0,0,0-1.07-3.77C417.32,402.83,416.79,401.65,416.27,400.47Zm3.45-.66c.31,1.24.65,2.47,1,3.69s.7,2.46.94,3.67.22,2.53.37,3.79.27,2.53.47,3.79c0-1.28-.06-2.56-.12-3.83s-.14-2.55-.26-3.84c-.29-1.27-.66-2.47-1.06-3.69S420.22,401,419.72,399.81Zm2.39-1.69a45.3,45.3,0,0,1,1.59,6.24c.2,1.06.4,2.11.52,3.18s.19,2.14.3,3.22a23.48,23.48,0,0,0,.06-3.25,21.76,21.76,0,0,0-.43-3.24A21.3,21.3,0,0,0,422.11,398.12Z" style="fill:#b16668"></path></g><path id="freepik--shade--inject-140" d="M368.5,367.66s-16.82-6.06-29.89-10.59c-11.22-3.89-18.34-6.29-28.91-5.18,6.95-5.3,9.71-12,12.18-16.84a23.29,23.29,0,0,1,8.26-6.45c9,.87,12.52,6.49,18.85,9.9,7.56,4.07,10.4,4.69,19.51,8.45,9.69,4,11.19,4.34,16.71,9.26,10.59,9.42,17.58,17.71,22.87,22.44,5.81,5.2,8.36,6.8,12.53,12.14,1.62,2.07,2.43,4.86,3.09,7.39.83,3.17,1.66,5.23,1.87,8.77a12.79,12.79,0,0,1,0,2.22c-.07.69-.22,1.5-1,1.59,0,0,0,.49,0,1.08,0,2.15-1.16,2.78-2.07,2.91,0,.95.16,1.7-.17,2a2.3,2.3,0,0,1-2.25.15,2.8,2.8,0,0,1-1.52-1.68,2,2,0,0,1-1.83-.51c-.82-.75-1.1-2.39-1.41-3.71a41.58,41.58,0,0,0-1.27-4.69,13.89,13.89,0,0,0-5.19-6.78c-1-.62-1,.17-1.07,1a23.39,23.39,0,0,0,.08,2.51,28.2,28.2,0,0,1,.15,5.43c-.37,3-2.17,3.71-2.7,2.83s-1.66-4.79-2.83-8.1-.69-6.84-2.3-11C397.93,386.6,368.5,367.66,368.5,367.66Z" style="fill:#90CAF9;opacity:0.30000000000000004"></path></g><g id="freepik--Foam--inject-140"><path d="M372.8,349.18c.46,3,2.54,5.53,4.88,7.46s5.25,3.57,7.62,5.67,4.32,5.13,3.46,8.11c-1,3.31-4.82,4.73-8.21,5.32-7,1.21-15-1.11-21.48,2.18-3.09,1.58-5.52,4.21-8.52,5.95-7.1,4.09-16,2.51-23.87.16s-16-5.39-24-3.83c-3.77.73-7.32,2.45-11.12,3-8.29,1.27-16.46-3.07-22.88-8.48-3.43-2.89-6.81-6.25-11.19-7.21-3.88-.84-8.27.31-12-1.22a28.71,28.71,0,0,1-9.66-6.88A47.75,47.75,0,0,1,228,347.67a73.55,73.55,0,0,1-6.38-19.76c-1.12-6.53-1.76-13.87.17-20.3,1.88-6.25,9-16.58,22-15.56.69,1.23,4.7,7.08,10.61,9.85a59.32,59.32,0,0,0,11.23,4.25q7.39,1.88,14.78,3.72c11.22,2.78,22.38,5.55,33.81,7.26a332.5,332.5,0,0,1,34.12,6.92c6.69,1.72,13.49,3.74,19,7.88,3,2.23,5.61,5.31,5.91,9,.21,2.63-.8,5.25-.52,7.87C372.76,348.93,372.78,349.05,372.8,349.18Z" style="fill:#fff;opacity:0.2"></path><path d="M229.21,339.39a69,69,0,0,0,16.51,16.46c2.6,1.79,5.49,3.41,8.64,3.58,2.32.11,4.62-.57,6.93-.39,5.26.42,9,5,12.93,8.55,4.82,4.43,11.91,7.83,17.79,5,1.51-.74,2.83-1.84,4.39-2.45,3.43-1.33,7.25-.05,10.79,1a77.72,77.72,0,0,0,12.36,2.56c3.4.42,8.92.73,11.05-2.66a27.05,27.05,0,0,1,2.15-3.7c2.06-2.33,5.66-2.17,8.77-2.14a46.7,46.7,0,0,0,11.84-1.38c2.64-.66,5.57-1.9,6.31-4.51.87-3.09-1.84-5.93-4.27-8s-5.09-5-4.1-8.08c.63-1.93,2.59-3.21,3.18-5.15a5.44,5.44,0,0,0-1.4-5.06,14.66,14.66,0,0,0-4.51-3.07c-12.81-6.65-27.09-9.64-41.08-12.63-14.5-3.11-23.93-4.6-38.65-8.28-6.88-1.72-10.34-2.42-16-6.75a33.07,33.07,0,0,1-9.08-10.15C219.83,292,217.83,323.07,229.21,339.39Z" style="fill:#fff;opacity:0.2"></path><path d="M342.09,346.81c.9,2.26,3.13,3.84,2.76,6.78a5.33,5.33,0,0,1-3,3.89,11.69,11.69,0,0,1-5,1,29.79,29.79,0,0,1-7.35-.68,16.92,16.92,0,0,0-5.12-.74c-5.1.46-4.4,6.22-7.14,9.08a5.42,5.42,0,0,1-3.87,1.39c-7.29.1-13.75-5.95-21-6.95a7,7,0,0,0-5.86,1.63,11.16,11.16,0,0,1-1.79,1.78,4.59,4.59,0,0,1-3.29.28c-7.88-1.57-12.66-12.33-21-11.62-1.76.14-3.41.95-5.16,1.06-2.56.17-5-1.14-7.12-2.53-12.78-8.27-24.38-20.93-24.31-36.94a27.91,27.91,0,0,1,4.47-14,18.06,18.06,0,0,1,15.45-8.18c1,1.68,2.27,5.9,6,9.11,10.63,9.12,21.95,10.75,33.32,13.15,7.3,1.54,18.46,3.63,25.73,5.43s13.71,3.29,20.95,5.49c3.3,1,6.66,2.08,9.38,4.18s4.74,5.47,4.31,8.89c-.22,1.81-1.1,3.46-1.57,5.22A5,5,0,0,0,342.09,346.81Z" style="fill:#fff;opacity:0.7000000000000001"></path></g><g id="freepik--Chest--inject-140"><path d="M316.52,333.48s-6.17,9.41-12.93,10.66-12.26-4.7-8.35-12.89S303,320,304.91,311.83l-3.47-3.07a22.62,22.62,0,0,1-12.59,8.88c-10.42,2.64-19.67,1-25-5-3.26-3.71-3.14-10.05-3.14-10.05h0a9.52,9.52,0,0,1-2.54-.28c-6.61-1.91-9.1-6.68-14.38-10.22a19.92,19.92,0,0,0-14.5,9.45c-7.32,11.72-3,27.24,9,34.05,4.6,2.61,9.62,5.41,17.18,9.59,14.4,8,33.22,13.55,50.41,8.08,1.31-.41,2.56-.86,3.77-1.33a24,24,0,0,0,5.1-4.78,66.84,66.84,0,0,0,7.08-12.06L319,332Z" style="fill:#37474f"></path><path d="M287.49,353.22c-9.05-1.92-25.89-14.66-34.2-18.17-4.8-2-11.56-2.24-18.63-2.06a24.62,24.62,0,0,0,3.68,2.56c4.6,2.61,9.62,5.41,17.18,9.59,14.4,8,33.22,13.55,50.41,8.08,1.31-.41,2.56-.86,3.77-1.33C309.7,351.89,296.54,355.15,287.49,353.22Z" style="fill:#263238"></path><path d="M327.38,330.12a20.78,20.78,0,0,0-5.5,4.93L319,332l-2.52,1.49s-6.17,9.41-12.92,10.65-12.27-4.69-8.35-12.88S303,320,304.91,311.83c4,3.22,5.08,2.43,7.86.45Z" style="fill:#ffa8a7"></path><path d="M311.63,313.09c1.68-2.93-.29-10,4.46-16.73,3.9-5.54,9-8,15.74-8.53A31.85,31.85,0,0,1,345,289.38a22.37,22.37,0,0,1,10.66,7.76c1.88,2.61,2.87,5.66,4.37,8.46a16.68,16.68,0,0,1,2.09,8.25c-.3,5.3-3.6,9-8.4,11.22a10.25,10.25,0,0,1-5.17.7l-10.34-2.43-16.86-4C319,318.8,313.36,313.75,311.63,313.09Z" style="fill:#263238"></path><path d="M320.76,306.62l-17.32,12.27s-2.19,3.15-2,10.49c.1,3.65,2.49,10.06,6,9.46L319,332Z" style="fill:#ffa8a7"></path><path d="M355.7,312.93h0s-3.44,1.5-12.21-1.78c-7.44-2.78-7.65-6.41-17.52-3.4-3.75.88-1.43-2.59-.55-3.89a5.3,5.3,0,0,0,.69-4.86c-.83-2.17-4-3.1-6.78-1.33a8,8,0,0,0-3.91,6.49,4.76,4.76,0,0,0,1.76,3.59,3,3,0,0,0,2.81.49l.77,0-4,6a26.93,26.93,0,0,0-2.32,7.89c.28,2.21,2.25,6.91,2.95,7.49l.82,1.24c2.63,3.59,7.27,7.62,9.66,8.52s7.23,2.36,16.7-8.48c1.15-1.31,1.91-3.44,3-4.37C355.84,319.8,355.57,313.6,355.7,312.93Z" style="fill:#ffa8a7"></path><path d="M314.44,322.2a21.5,21.5,0,0,0,1.3,3.82c.27.62.56,1.22.86,1.82.14.3.3.6.46.88a3.54,3.54,0,0,0,.52.73l0,0,0,0a24.4,24.4,0,0,0,2.66,3.31,37.16,37.16,0,0,0,3.05,3c2.16,1.81,4.46,3.66,7.2,3.8a8.74,8.74,0,0,0,4-.81,20.75,20.75,0,0,0,3.64-2.11,53.79,53.79,0,0,0,6.39-5.71,38.35,38.35,0,0,1-6,6.22,18.75,18.75,0,0,1-3.7,2.36,9.42,9.42,0,0,1-4.36.95,7.64,7.64,0,0,1-2.23-.41,8.47,8.47,0,0,1-2-.94,27.62,27.62,0,0,1-3.47-2.68,28.49,28.49,0,0,1-5.63-6.61l.06.07a3.31,3.31,0,0,1-.62-.94c-.16-.31-.3-.62-.44-.93-.28-.63-.51-1.27-.73-1.91A18.08,18.08,0,0,1,314.44,322.2Z" style="fill:#f28f8f"></path><path d="M317.55,312.6s-4.47,4.73-4.41,9.89a21.4,21.4,0,0,0,3.91,10.68l2-1.18a42.62,42.62,0,0,1-2.55-4.13,25.4,25.4,0,0,1-1.55-4.32C313.72,319,317.17,313.89,317.55,312.6Z" style="fill:#f28f8f"></path><path d="M335.72,318.72c-.66.82-.63-.51-1.41-1.14s-2.08-.33-1.42-1.15a1.82,1.82,0,1,1,2.83,2.29Z" style="fill:#263238"></path><path d="M337.89,313.24l-4.17-1.56a2.34,2.34,0,0,1,2.95-1.33A2.17,2.17,0,0,1,337.89,313.24Z" style="fill:#263238"></path><path d="M349,322.83,346.65,319a2.16,2.16,0,0,1,3.06.66A2.36,2.36,0,0,1,349,322.83Z" style="fill:#263238"></path><path d="M346.22,325.88c-.53.9-.62-.5-1.49-1s-2.17.05-1.64-.85a1.82,1.82,0,1,1,3.13,1.86Z" style="fill:#263238"></path><path d="M340.13,319.57l-5.54,9.52,5.76,1.62S342.1,320.42,340.13,319.57Z" style="fill:#f28f8f"></path><path d="M327.84,325.6l3.5,5.1a3.11,3.11,0,0,1-4.46-1.06A2.91,2.91,0,0,1,327.84,325.6Z" style="fill:#b16668"></path><path d="M328.12,330.82a3.25,3.25,0,0,0-.82-4.28,2.2,2.2,0,0,0-.26-.15,2.73,2.73,0,0,0-.16,3.25A3.48,3.48,0,0,0,328.12,330.82Z" style="fill:#f28f8f"></path><path d="M347.4,295.24c-2.07-.31-4.12-.82-6.17-1.26a32,32,0,0,1-9-3.4,6.4,6.4,0,0,1-3-2.77,4.26,4.26,0,0,1,1.43-4.82,6.38,6.38,0,0,1,5.14-1,2.34,2.34,0,0,1,0-3.46,3.88,3.88,0,0,1,2.5-.67,8.77,8.77,0,0,1,6.61,2.79,6.07,6.07,0,0,0-5.09-3.84,10.3,10.3,0,0,1,8,1.51,9.43,9.43,0,0,1,4,6,3.07,3.07,0,0,1,2.54,2.11,3,3,0,0,1-1,3.15,3.57,3.57,0,0,1,1.14,4c-.94,2.44-3.07,2.06-5.12,1.9C348.73,295.42,348.06,295.34,347.4,295.24Z" style="fill:#263238"></path><path d="M288.85,317.65c-10.42,2.63-19.67,1-25-5-3.1-3.53-3.14-9.44-3.14-10,7.59.16,21.13-5.21,24.42-5.42,3.51-.23,10.46,6.21,16.31,11.59A22.71,22.71,0,0,1,288.85,317.65Z" style="fill:#ffa8a7"></path><path d="M267.31,305.13c1.21,1.43,1.93,3.42,1.29,5.08l2,.38,3.24-3.59.33-2.48-2.1-3-1.29-.51a62.48,62.48,0,0,1-6.3,1.29C265.44,303.19,266.64,304.34,267.31,305.13Z" style="fill:#f28f8f"></path><path d="M301.44,308.76c-2.57-3.27-4.67-9.05-10.27-14.86-4.28-4.42-14.12-10.36-18.75-14.21s-16.49-12.83-20.12-15.79-7.05-5.3-16.52,1.42-26.85,17.88-34.69,22.92a71.46,71.46,0,0,0-15.48,13c-1.81,2-2.82,4.69-3.67,7.17a39.65,39.65,0,0,0-1.94,8.81,13.4,13.4,0,0,0-.11,2.22c0,.69.13,1.52,1,1.66,0,0,0,.49-.09,1.07-.17,2.15,1,2.86,2,3.05-.09.94-.28,1.68,0,2a2.44,2.44,0,0,0,2.32.31,2.76,2.76,0,0,0,1.67-1.57,2.13,2.13,0,0,0,1.93-.38c.9-.69,1.29-2.32,1.69-3.61a41,41,0,0,1,1.6-4.6,14,14,0,0,1,5.79-6.4c1.07-.55,1.07.23,1.05,1.07a23.42,23.42,0,0,1-.24,2.51,27.28,27.28,0,0,0-.5,5.4c.2,3,2,3.86,2.62,3s2-4.67,3.43-7.9,1.88-7.85,3.81-11.85c2.66-5.53,35.73-19.6,35.73-19.6s16.55,12.38,20,15.61c2.93,2.77,8.67,8.27,4.4,11.41C277,317.66,296.4,314.35,301.44,308.76Z" style="fill:#ffa8a7"></path><path d="M188.24,314.89a15.21,15.21,0,0,0-1.34,3.69c-.25,1.28-.45,2.56-.65,3.84l-.27,1.93a2.42,2.42,0,0,0,.09,1,1.06,1.06,0,0,0,.68.69,1.42,1.42,0,0,1-.52-1.66l.41-1.89.73-3.81a17.25,17.25,0,0,1,1.2-3.64c.49-1.2,1-2.38,1.46-3.61C189.41,312.58,188.8,313.72,188.24,314.89Zm-3.33-.87c-.48,1.19-.95,2.36-1.33,3.61-.2,1.28-.35,2.54-.51,3.81s-.27,2.54-.35,3.82c.28-1.25.5-2.5.72-3.75s.38-2.53.61-3.76.8-2.39,1.21-3.59.84-2.41,1.24-3.62C185.91,311.68,185.41,312.85,184.91,314Zm-3.27.66a21.87,21.87,0,0,0-.65,3.2,25.4,25.4,0,0,0-.14,3.26c.18-1.07.31-2.15.51-3.2s.47-2.09.74-3.13a42,42,0,0,1,2-6.13A20.79,20.79,0,0,0,181.64,314.68Z" style="fill:#f28f8f"></path></g></g><g id="freepik--water-lines--inject-140" style="opacity:0.15"><path d="M96.62,241.63c1.57,1.22,3,2.55,3.2,4.16a8.43,8.43,0,0,1-.38,3l6.18,1.44,5,1.65c-.75-2.89.17-6.12,2.76-9.13a23.78,23.78,0,0,1,4.16-3.7c-3-1-5.91-2.19-9.07-.83a9.67,9.67,0,0,1-1.92.78,6.58,6.58,0,0,1-1.88,0,8.64,8.64,0,0,0-4,.39c-1.23.49-2.22,1.43-3.42,2C97.08,241.46,96.85,241.54,96.62,241.63Z" style="fill:#fff;opacity:0.5"></path><path d="M117.18,301.67c4,1.69,5.81,4.51,9,6.63,3.83,2.51,9.52,3.94,15.09,5.33s11.24,2.8,15.15,5.28,5.64,6.3,2.69,10c-.13.17-.28.33-.43.49l4.26,1.41,1.78.57c1.62-2.07,3.11-4.14,3.62-6.23.84-3.33-.92-6.36-3.59-8.94a34.76,34.76,0,0,0-12.62-7.41c-4.76-1.7-10.29-2.88-14.6-4.88s-7.42-5.12-5.85-8.66a7.76,7.76,0,0,1,1.41-2c-3.35-.84-6.59-1.62-9.71-2.63-1.48,2.16-4.66,4.19-8.59,5.09-4.15.95-8.41.7-12.6.85l5.87,3.73A23.26,23.26,0,0,1,117.18,301.67Z" style="fill:#fff;opacity:0.5"></path><path d="M422.31,416.79a.77.77,0,0,0,.14-.27,13.69,13.69,0,0,0-2.4.42h0a1.45,1.45,0,0,0,.25.1,3.56,3.56,0,0,0,.6.11h.32a2.29,2.29,0,0,0,.61-.1A1.14,1.14,0,0,0,422.31,416.79Z" style="fill:#fff;opacity:0.5"></path><path d="M417.55,387.2a70.49,70.49,0,0,0-5.64-5.21c-1.13-1-2.37-2-3.83-3.34-5.29-4.73-12.28-13-22.87-22.44l-.52-.47c-1.44-.53-2.9-1-4.4-1.52-2.58-.82-5.37-1.62-6.56-3.13a3.27,3.27,0,0,1-.67-2.27l-1.28-.53L368.5,347c-2.18-.9-4-1.62-5.61-2.25-3.21,3.82-9.36,7.27-16.44,8.41-3.92.65-7.79.6-11.69.92-1.24.1-2.51.26-3.77.48,2.37.74,4.87,1.6,7.62,2.56l.8.27.41-.08c4.6-.92,9.28-1.13,13.94-1.7a70.89,70.89,0,0,1,9-.92c6-.07,10.39,2,14.14,4.05a92.59,92.59,0,0,1,19.4,14c4.46,4.3,8.16,9.49,4.52,15a14.83,14.83,0,0,1-2.07,2.44,8.11,8.11,0,0,1,1.46,2.1,18.65,18.65,0,0,1,.87,3,2.07,2.07,0,0,1,0,.22l7.24-4.28A32.16,32.16,0,0,1,417.55,387.2Z" style="fill:#fff;opacity:0.5"></path><path d="M147.26,280.9c1.11,1.62,2.31,3.34,3.58,5.12a72.41,72.41,0,0,1,9.1-.64,78.4,78.4,0,0,1,23.87,3.14,59.37,59.37,0,0,0-7.77-9c-1.31-.15-2.64-.27-4-.32C164.07,278.87,155.51,280.3,147.26,280.9Z" style="fill:#fff;opacity:0.5"></path><path d="M56.38,276.55a1.84,1.84,0,0,0-.14,1.77c.18.33.48.58.66.91l0,.08a20.91,20.91,0,0,0,6.94-4.47,6.1,6.1,0,0,1-1.22.09,22.6,22.6,0,0,0-2.95-.26,5.09,5.09,0,0,0-2,.67A3.63,3.63,0,0,0,56.38,276.55Z" style="fill:#fff;opacity:0.5"></path><path d="M226.74,307.13a23.78,23.78,0,0,0-1,6.61,20.83,20.83,0,0,0-5,3c-3,2.56-4.17,5.46-5.26,8.25l-6.29,16.29c-3.43-.31-6.89-.77-10.34-1.35.26-.2.52-.4.79-.59a6.34,6.34,0,0,0,.91-1.1c3.34-4,5.21-8.14,5.45-12.14.17-2.81-.19-5.95,3.64-8.37a26.61,26.61,0,0,0,3.37-2c2.57-2.25-.79-4.52-4.77-5s-8.75-.15-12.16-1.2c-4.94-1.53-5.25-5.5-3.58-9,.83-1.7,2-3.44,1.9-5.09-.16-2-2.24-3.46-4.71-4.66,3.08-.44,7.7-1.07,12.94-1.68a13.72,13.72,0,0,0,3.18-.35c4.43-.47,9.14-.88,13.63-1.12a6.38,6.38,0,0,1-3,6.06c-3.62,2.48-10.45,3.65-12.47,6.51-1.35,2,.32,3.78,2.63,4.94,3.39,1.74,8.17,2.66,13.36,2.56A63.43,63.43,0,0,0,226.74,307.13Z" style="fill:#fff;opacity:0.5"></path><path d="M252.72,343.6a4.53,4.53,0,0,0-1,0A8.4,8.4,0,0,0,250,344a72.17,72.17,0,0,0-9-1.58,32.59,32.59,0,0,1,5.89-2.1h0Z" style="fill:#fff;opacity:0.5"></path></g></g></g></svg>
