<svg xmlns="http://www.w3.org/2000/svg" viewBox="0 0 500 500"><g id="freepik--Floor--inject-401"><g id="freepik--Track--inject-401"><ellipse id="freepik--floor--inject-401" cx="249.53" cy="345.75" rx="236.06" ry="136.29" style="fill:#e0e0e0"></ellipse><path d="M484.86,335.08,268,209.88c-5.56-.25-11.14-.39-16.71-.41L485.57,344.73A80.16,80.16,0,0,0,484.86,335.08Z" style="fill:#fafafa"></path><path d="M79.56,251.18q-3.94,2.37-7.66,4.81L405,448.3q4.23-2.15,8.33-4.42Z" style="fill:#fafafa"></path><path d="M19.21,375.66l178.5,103.06q9.69,1.26,19.52,2L15.69,364.4A86.51,86.51,0,0,0,19.21,375.66Z" style="fill:#fafafa"></path></g></g><g id="freepik--Clouds--inject-401"><g id="freepik--clouds--inject-401"><path d="M110.63,39.76l-8.06,4.65a9.77,9.77,0,0,0,.07-1.07V41c0-4.16-2.92-5.84-6.52-3.77A12.77,12.77,0,0,0,92.23,41c-.59-5.23-4.69-7.17-9.67-4.3-5.39,3.11-9.75,10.67-9.75,16.89v3.5a9.35,9.35,0,0,0,.82,4L66.94,65a8,8,0,0,0-3.62,6.26c0,2.31,1.62,3.25,3.62,2.09l43.69-25.22a8,8,0,0,0,3.62-6.27C114.25,39.54,112.63,38.6,110.63,39.76Z" style="fill:#ebebeb"></path><path d="M145.14,63.25l-6.09,3.51a7.31,7.31,0,0,0,0-.8V64.19c0-3.13-2.2-4.41-4.92-2.84a9.67,9.67,0,0,0-2.93,2.82c-.44-3.94-3.54-5.41-7.3-3.24a16.28,16.28,0,0,0-7.36,12.75v2.63a6.94,6.94,0,0,0,.63,3.06l-5.06,2.92A6,6,0,0,0,109.43,87c0,1.74,1.22,2.45,2.73,1.58l33-19a6.06,6.06,0,0,0,2.73-4.73C147.87,63.08,146.64,62.38,145.14,63.25Z" style="fill:#ebebeb"></path></g></g><g id="freepik--hurdle-2--inject-401"><g id="freepik--Fence--inject-401"><path d="M282.12,272.85v76.31a.53.53,0,0,1-.79.46L255.48,334.7l-3.33,5.76,30.3,17.5a4.22,4.22,0,0,0,6.33-3.66V276.7Z" style="fill:#455a64"></path><path d="M253.83,334.87c1.3-.75,2.35-.14,2.35,1.36a5.19,5.19,0,0,1-2.35,4.07c-1.3.75-2.36.15-2.36-1.36A5.2,5.2,0,0,1,253.83,334.87Z" style="fill:#455a64"></path><path d="M373.92,219.85v76.32a.52.52,0,0,1-.79.45L347.28,281.7,344,287.47,374.25,305a4.23,4.23,0,0,0,6.34-3.66V223.7Z" style="fill:#455a64"></path><path d="M345.63,281.87c1.3-.75,2.35-.14,2.35,1.36a5.21,5.21,0,0,1-2.35,4.08c-1.3.75-2.35.14-2.35-1.36A5.21,5.21,0,0,1,345.63,281.87Z" style="fill:#455a64"></path><polygon points="268.8 261.31 380.59 196.78 387.25 200.63 387.25 223.7 275.46 288.23 268.8 284.39 268.8 261.31" style="fill:#FF81AE"></polygon><polygon points="268.8 261.31 275.46 265.16 387.25 200.63 380.59 196.78 268.8 261.31" style="fill:#fff;opacity:0.8"></polygon><polygon points="275.46 265.16 387.25 200.63 387.25 223.7 275.46 288.23 275.46 265.16" style="fill:#fff;opacity:0.65"></polygon><polygon points="268.8 261.31 275.46 265.16 275.46 288.23 268.8 284.39 268.8 261.31" style="fill:#fff;opacity:0.5"></polygon></g></g><g id="freepik--character-2--inject-401"><g id="freepik--Character--inject-401"><path d="M312,114.4s5.7-.88,8.81,3.26,2.51,10.26,1.33,15.83S312,114.4,312,114.4Z" style="fill:#f28f8f"></path><path d="M332.46,184.41c4.81-3.67,9.4-1.78,10.25,4.21s-2.36,13.82-7.18,17.49-9.4,1.78-10.25-4.21S327.64,188.08,332.46,184.41Z" style="fill:#FF81AE"></path><path d="M332.46,184.41c4.81-3.67,9.4-1.78,10.25,4.21s-2.36,13.82-7.18,17.49-9.4,1.78-10.25-4.21S327.64,188.08,332.46,184.41Z" style="opacity:0.5"></path><path d="M314.49,166.6s30.48,19.26,36.76,24.74c4.73,4.13,5.47,6.09,15.07,21.2,8.2,12.93,22.33,35.57,22.33,35.57a9.64,9.64,0,0,1-6.12,7.51s-20.18-19-27.71-26.87-11.19-19.38-11.19-19.38l-42-12.52,1.44-12.14Z" style="fill:#f28f8f"></path><path d="M403.27,231.41c-3.44.19-5.55,3-7.09,5.5s-4.13,7.07-5.28,7.84-1.83,0-3.45,1.25-2.85,3.56-2.34,4.44l1.2,2.08a4.42,4.42,0,0,0-3.73,1.41c-1.79,1.78-.86,2.09.16,3.11s2.79,4.86,5.17,6.11A22.23,22.23,0,0,0,399,254C403.63,246.68,403.27,231.41,403.27,231.41Z" style="fill:#FF81AE"></path><path d="M389.22,264.11a1.77,1.77,0,0,1-1.41-2.24,21.91,21.91,0,0,1,3.16-6.26c1.62-2.29,4.63-6.56,5.14-8.94s1.61-8.93,3.39-11.7,3.63-4.35,6-3.46-5.09,18.57-7.27,21.56S389.22,264.11,389.22,264.11Z" style="fill:#37474f"></path><path d="M390.6,263.73c5.89-3.14,7.83-6.2,9.55-10.15s5.81-7.66,6.86-11.23,1.17-12.73-2.89-10.51-4.89,10.41-6.67,15.14S384.82,266.81,390.6,263.73Z" style="fill:#263238"></path><path d="M339.55,182.85l-19.39-13.58-38-.67s2.57,21.81,12.81,26.34c12.23,5.4,33.27,12.36,33.27,12.36-4.89-4-3.46-12-.49-17.22C332.35,182.14,336.25,182,339.55,182.85Z" style="fill:#FF81AE"></path><path d="M339.55,182.85l-19.39-13.58-38-.67s2.57,21.81,12.81,26.34c12.23,5.4,33.27,12.36,33.27,12.36-4.89-4-3.46-12-.49-17.22C332.35,182.14,336.25,182,339.55,182.85Z" style="opacity:0.35000000000000003"></path><path d="M307.34,189a30,30,0,0,0,12.82-12.85,21,21,0,0,1-10.81,14.2l-.72,8.09,18,8.32c-6.82-2.28-14-4.86-21.44-7.67Z" style="opacity:0.2"></path><path d="M265.47,187.81a5.83,5.83,0,0,0-2.4-2.72,6.44,6.44,0,0,0-6.67,1.5c-2.21,2.25-3.44,5.37-4.86,7.11s-5.14,4.15-7.12,5.33-4.68,5-4.56,9.18a6.5,6.5,0,0,0,3.48,5.19Z" style="fill:#37474f"></path><path d="M264.67,186.75c-1.56-.9-4.55-.67-6.77,1.09-1.93,1.53-3.38,4.37-4.69,6.36a11.66,11.66,0,0,1-2.68,2.52c-1.14.95-4,2.73-5,3.77a11.93,11.93,0,0,0-2.09,2.88,11.3,11.3,0,0,0-1.32,3.67c-.3,2,0,5,1.4,6.52a3.7,3.7,0,0,0,5.78-.18c.54-.65,1.07-1.29,1.56-2a21.22,21.22,0,0,1,3.27-3.5,26.39,26.39,0,0,1,5.15-3.35c.2-.09.41-.21.61-.28,2.24-.87,4.51-1.56,4.87-2.31s1.44-7.5,3.26-8.82c.48-.34.3-1-.07-1.65S266.24,187.65,264.67,186.75Z" style="fill:#FF81AE"></path><path d="M283,165.28c-1,4.11-3.93,14.4-4.61,25.49-.45,7.27-.71,24.46-.71,32.84s-.43,14.59,2.53,17.48,9,2.47,11.92-2.81,4.62-11,7.07-21,3.94-17.08,3.94-17.08l3.18-27.3Z" style="fill:#f28f8f"></path><path d="M284.63,242.87c-3.69,0-6-1.46-10.7-10.4s-14.26-32.36-14.26-32.36-1.23-4.43,2-7.21c3.63-3.12,5.67-1.12,5.67-1.12s2.59,3.85,5.53,7.63c2.7,3.47,6.22,6.92,8.55,10.18C283.06,211.86,284.63,242.87,284.63,242.87Z" style="fill:#f28f8f"></path><path d="M277.94,205.31s-.52,20.65-.14,28a70.46,70.46,0,0,1-2.06-15.44,121.49,121.49,0,0,1,.09-14.93Z" style="fill:#b16668"></path><path d="M283,165.28a83.85,83.85,0,0,0-4.42,17.26c-1.27,9.27-.92,29.51-.92,29.51s2.58,4.5,11.09,6.06,12.83-2.74,12.83-2.74L307.34,189s11.83-5.62,14.82-18.37Z" style="fill:#FF81AE"></path><path d="M283,165.28a83.85,83.85,0,0,0-4.42,17.26c-1.27,9.27-.92,29.51-.92,29.51s2.58,4.5,11.09,6.06,12.83-2.74,12.83-2.74L307.34,189s11.83-5.62,14.82-18.37Z" style="opacity:0.30000000000000004"></path><path d="M304.19,97.32l-3.57,12.07c-9.92,0-16.05-9.67-16.05-19.59h0c0-10,6.34-18.3,16.31-18.3h3.24c10,0,18,6.62,18,16.59h0C322.16,94.58,314.12,97.32,304.19,97.32Z" style="fill:#263238"></path><path d="M294.87,114.19h-1.93c-8.79.6-9.27,3.67-9.71,7.49a29.89,29.89,0,0,0,.22,12.48c1.37,5.38,1.81,18.29,1.81,18.29s-2.61,11.14-3.71,16.86c15.35,10,34.25,7.36,40.61,1.3-.13-5.43.15-11.28-.31-16.39,0,0,.24-8.68.87-12.14,4.13-5.26,3.84-9.34,2-13.61C321.61,120.92,314,114.39,312,114.4Z" style="fill:#37474f"></path><path d="M315.7,79.45c2.08,1.23,4.65,6.46,4.4,17.41-.22,9.28-3.23,11.57-4.74,12.24s-4.42.25-7.26-.22v5.57s3.92,4.55,3.67,7.11-5.65,3.15-9.31.66-6-7.44-6-7.44v-12s-1.91,2.27-5,.19-3.24-7.21-1.43-9.06,5.74-1.26,6.47,1.29c0,0,4.52.16,10.54-3.14A16.93,16.93,0,0,0,315.7,79.45Z" style="fill:#f28f8f"></path><path d="M308.69,94.53a1.17,1.17,0,0,1-1.1,1.26,1.21,1.21,0,1,1,1.1-1.26Z" style="fill:#263238"></path><path d="M310,102.4l2.71.86a1.39,1.39,0,0,1-1.76,1A1.49,1.49,0,0,1,310,102.4Z" style="fill:#b16668"></path><path d="M318.26,90.94l-2.36-1.63a1.38,1.38,0,0,1,2-.41A1.51,1.51,0,0,1,318.26,90.94Z" style="fill:#263238"></path><path d="M317.72,93.68a1.17,1.17,0,1,1-2.33.11,1.17,1.17,0,0,1,1.1-1.26A1.19,1.19,0,0,1,317.72,93.68Z" style="fill:#263238"></path><polygon points="312.02 93.01 312.2 100.04 315.9 98.9 312.02 93.01" style="fill:#b16668"></polygon><path d="M308.1,108.88c-3-.39-9.12-2.15-10.08-4.58a6.33,6.33,0,0,0,2.15,3.1c1.84,1.57,7.93,3.34,7.93,3.34Z" style="fill:#b16668"></path><path d="M274.2,78.43c-4.07,3.47-8.36,5.16-13.77,4.75-3.09-.24-6.58-1.07-9,.86-2.1,1.65-2.24,4.25-1.13,6.54,1.21,2.46,4.37,4.09,6.84,5a16,16,0,0,0,9.69.52,18.17,18.17,0,0,0,8.28-4.6,49.73,49.73,0,0,0,4.4-5.78,14.35,14.35,0,0,1,5.31-4.85,25.68,25.68,0,0,1,3.73-1.19c1.34-.4,2.85-1.16,3-2.55a3,3,0,0,0-1.6-2.56,8.87,8.87,0,0,0-6.53-1A21.57,21.57,0,0,0,274.2,78.43Z" style="fill:#263238"></path><path d="M294.67,149.87s15.54,1.4,24.85-3.34l-.37,15.52s-10.65,6.33-25.23,2.45Z" style="fill:#f0f0f0"></path><path d="M302.77,156.94c0,.15,0,.3,0,.48l0,.53,0,.53c0,.17,0,.33,0,.47a4.9,4.9,0,0,1-.26,1.2,2.48,2.48,0,0,1-.58.95,2.25,2.25,0,0,1-1,.6,3.69,3.69,0,0,1-1.42.14,3.78,3.78,0,0,1-1.39-.34,2.48,2.48,0,0,1-.89-.73,2.8,2.8,0,0,1-.47-1,5.48,5.48,0,0,1-.13-1.24c0-.28,0-.61,0-1s0-.68.07-1a5.54,5.54,0,0,1,.27-1.2,2.43,2.43,0,0,1,.57-.93,2.31,2.31,0,0,1,1-.58,3.66,3.66,0,0,1,1.42-.13,4.12,4.12,0,0,1,1.39.32,2.4,2.4,0,0,1,1.36,1.68A5.3,5.3,0,0,1,302.77,156.94Zm-4.68,1.67a2.43,2.43,0,0,0,.32,1.29,1.38,1.38,0,0,0,1.11.53,1.3,1.3,0,0,0,1.15-.37,2.31,2.31,0,0,0,.46-1.24c0-.28.05-.6.07-.94s0-.67,0-.95a2.35,2.35,0,0,0-.32-1.28,1.37,1.37,0,0,0-1.11-.52,1.29,1.29,0,0,0-1.15.36,2.24,2.24,0,0,0-.46,1.22c0,.28-.05.6-.07.95S298.09,158.32,298.09,158.61Z"></path><path d="M315.77,155.05a1.77,1.77,0,0,0,.47-.63,1.71,1.71,0,0,0,.12-.54.93.93,0,0,0-.24-.74,1.06,1.06,0,0,0-.94-.16,1.51,1.51,0,0,0-.94.44,2.63,2.63,0,0,0-.46.84.34.34,0,0,1-.15.24.45.45,0,0,1-.2.11l-.91.12a.29.29,0,0,1-.22-.06.22.22,0,0,1-.07-.21,2.78,2.78,0,0,1,.31-1,3.5,3.5,0,0,1,.66-.88,3.54,3.54,0,0,1,.93-.66,3.88,3.88,0,0,1,1.12-.37,3,3,0,0,1,1.24,0,2,2,0,0,1,.84.44,2,2,0,0,1,.47.73,2.43,2.43,0,0,1,.12.85c0,.19,0,.37-.07.55a1.84,1.84,0,0,1-.19.54,3.75,3.75,0,0,1-.39.6,7.14,7.14,0,0,1-.68.71l-2.22,2.26c1.27-.2,1.91-.3,3.19-.54a.23.23,0,0,1,.21.05.19.19,0,0,1,.08.19c0,.32,0,.49,0,.81a.37.37,0,0,1-.1.23.39.39,0,0,1-.23.13c-2.14.4-3.22.57-5.35.84a.24.24,0,0,1-.22-.06.28.28,0,0,1-.08-.2c0-.28,0-.42,0-.69a.63.63,0,0,1,.13-.35,1.13,1.13,0,0,1,.21-.22C313.63,157.12,314.34,156.44,315.77,155.05Z"></path><path d="M310.24,152.79a.21.21,0,0,1,.21.05.19.19,0,0,1,.07.19l-.1.8a.52.52,0,0,1-.12.25l-.19.22c-.77.83-1.15,1.24-1.92,2a3.34,3.34,0,0,1,.92.07,1.68,1.68,0,0,1,.67.33,1.23,1.23,0,0,1,.38.58,2,2,0,0,1,0,.85,2.67,2.67,0,0,1-.37,1.09,3.57,3.57,0,0,1-.76.9,4.58,4.58,0,0,1-1.06.68,5.43,5.43,0,0,1-1.28.39,4.43,4.43,0,0,1-1.39,0,2.31,2.31,0,0,1-.94-.33,1.37,1.37,0,0,1-.53-.57,1.45,1.45,0,0,1-.15-.7.3.3,0,0,1,.11-.23.39.39,0,0,1,.24-.12l.92-.13a.21.21,0,0,1,.18,0,.78.78,0,0,1,.13.19.69.69,0,0,0,.16.22.64.64,0,0,0,.28.17,1.44,1.44,0,0,0,.46.07,3.22,3.22,0,0,0,.71-.06,2.63,2.63,0,0,0,1.18-.48,1.27,1.27,0,0,0,.54-.86.54.54,0,0,0-.35-.65,2.42,2.42,0,0,0-1.12,0l-1,.16a.24.24,0,0,1-.21-.06.22.22,0,0,1-.07-.19l.1-.8a.45.45,0,0,1,.12-.25l.19-.21c.74-.77,1.11-1.15,1.84-1.93-1.28.23-1.93.33-3.21.52a.24.24,0,0,1-.21-.06.22.22,0,0,1-.07-.2l.1-.8a.37.37,0,0,1,.12-.23.4.4,0,0,1,.23-.12C307.17,153.37,308.2,153.2,310.24,152.79Z"></path><path d="M291.51,114.31c-6.94-.1-10.25,1.75-12.87,8.92s-6.67,35.21-4.4,38.71,23.33,4.63,30.48,4.66,16-1.83,21.3-4.82c5.06-2.87,8.13-9.8,5.68-13.13-1.42-1.93-2.44-1.51-4.05-.13a15.54,15.54,0,0,1-7.29,3.38,17.88,17.88,0,0,0,2-3.12,9.34,9.34,0,0,0,.9-2.28,2.09,2.09,0,0,0-.18-1.79,1.47,1.47,0,0,0-1.87-.09,6.57,6.57,0,0,0-1.41,1.47,14.55,14.55,0,0,1-2.63,2.25l-4.69,3.43a24.44,24.44,0,0,1-2.48,1.67,12.82,12.82,0,0,1-7,1.3,94.26,94.26,0,0,1-16.18-2.29L290.75,131S295.28,122,291.51,114.31Z" style="fill:#f28f8f"></path></g></g></svg>
